<svg width="14" height="14" viewBox="0 0 14 14" fill="none" xmlns="http://www.w3.org/2000/svg">
<rect y="14" width="14" height="14" rx="7" transform="rotate(-90 0 14)" fill="white" fill-opacity="0.1"/>
<path d="M3.51046 7.91668C3.48496 8.04168 3.49546 8.17618 3.57296 8.29068C3.64875 8.40107 3.76467 8.47748 3.89599 8.50363C4.02732 8.52979 4.16366 8.50361 4.27596 8.43068L6.99446 6.62468L9.71346 8.43068C9.94296 8.58318 10.2635 8.51918 10.4165 8.29068C10.4896 8.17882 10.5158 8.04271 10.4896 7.91168C10.4633 7.78064 10.3866 7.66518 10.276 7.59018L7.27596 5.59718C7.1923 5.54264 7.09458 5.5136 6.99471 5.5136C6.89484 5.5136 6.79712 5.54264 6.71346 5.59718L3.71346 7.59018C3.59846 7.66618 3.53546 7.79168 3.51046 7.91668Z" fill="#B9B9B9" fill-opacity="0.5"/>
</svg>
