<svg width="16" height="16" viewBox="0 0 16 16" fill="none" xmlns="http://www.w3.org/2000/svg">
<path d="M7.29166 0.750135C8.0488 0.343734 9.03361 -0.140565 9.84049 0.420057C10.4439 0.84 10.3469 1.4124 10.3991 2.04896C10.4746 2.9671 11.047 3.63759 11.7965 4.1349C12.745 4.76412 13.4938 5.38503 14.0065 6.41322C14.4793 7.3617 14.7209 8.41061 14.859 9.45228C15.0731 11.0692 15.0574 12.8552 14.7184 14.4562C14.6786 14.6449 14.6265 14.8351 14.5202 14.9972C14.2952 15.3398 13.7321 15.4868 13.5612 15.0236C13.5118 14.8899 13.4894 14.7431 13.4069 14.6261C13.3708 14.5748 13.3201 14.5289 13.2575 14.5167C13.176 14.501 13.0937 14.5456 13.0358 14.6046C12.8872 14.7566 12.8598 14.9852 12.7653 15.1749C12.628 15.4493 12.332 15.6395 12.0212 15.6544C11.2406 15.6915 11.233 14.9529 10.8385 14.5148C10.6468 14.3021 10.3255 14.2029 10.0475 14.2921C9.74085 14.3905 9.59872 14.7184 9.30534 14.841C8.99207 14.9718 8.62104 14.9807 8.30924 14.841C8.16028 14.7738 8.02564 14.678 7.8776 14.6095C7.48919 14.4305 7.24075 14.6394 7.05143 14.964C6.83733 15.3313 6.58969 15.675 6.15104 15.7892C5.50179 15.9577 4.97267 15.6144 4.69596 15.0626C4.47379 14.6189 4.11766 13.9373 3.50456 14.3341C3.0812 14.6081 3.22332 15.2181 2.86002 15.5412C2.325 16.0166 1.77308 15.5661 1.5153 15.0529C1.27187 14.5682 1.14126 14.0402 1.07291 13.4992L1.04459 13.2384C0.988346 12.6278 0.999154 12.0059 1.00456 11.4152C1.01596 10.132 1.19471 8.84376 1.59538 7.62025C2.2638 5.57823 3.49535 3.74029 5.12272 2.31166C5.79148 1.72451 6.50284 1.17374 7.29166 0.750135ZM5.15299 7.4933C4.50875 7.4933 3.98614 8.0151 3.986 8.65932C3.986 9.30365 4.50866 9.82631 5.15299 9.82631C5.7973 9.82627 6.31998 9.30363 6.31998 8.65932C6.31984 8.01512 5.79721 7.49334 5.15299 7.4933ZM10.154 7.4933C9.50978 7.49336 8.98712 8.01514 8.98698 8.65932C8.98698 9.30361 9.50969 9.82624 10.154 9.82631C10.7983 9.82631 11.321 9.30365 11.321 8.65932C11.3208 8.0151 10.7982 7.4933 10.154 7.4933Z" fill="#AF94DD"/>
</svg>
