<svg width="15" height="15" viewBox="0 0 15 15" fill="none" xmlns="http://www.w3.org/2000/svg">
<path d="M12.1875 3.4375L11.8002 9.70319C11.7012 11.304 11.6517 12.1044 11.2505 12.6799C11.0521 12.9644 10.7967 13.2046 10.5004 13.385C9.90131 13.75 9.09937 13.75 7.49544 13.75C5.88945 13.75 5.08644 13.75 4.48691 13.3843C4.1905 13.2036 3.935 12.963 3.73668 12.678C3.33555 12.1016 3.28716 11.3001 3.19038 9.697L2.8125 3.4375" stroke="#FF41A3" stroke-width="1.5" stroke-linecap="round"/>
<path d="M1.875 3.4375H13.125M10.0348 3.4375L9.60819 2.55733C9.32475 1.97266 9.183 1.68033 8.93856 1.49801C8.88437 1.45756 8.82694 1.42159 8.76688 1.39044C8.49619 1.25 8.17131 1.25 7.52156 1.25C6.8555 1.25 6.5225 1.25 6.2473 1.39632C6.18631 1.42876 6.12811 1.46619 6.07331 1.50823C5.82602 1.69794 5.68789 2.00097 5.41163 2.60704L5.03308 3.4375" stroke="#FF41A3" stroke-width="1.5" stroke-linecap="round"/>
<path d="M5.9375 10.3125V6.5625" stroke="#FF41A3" stroke-width="1.5" stroke-linecap="round"/>
<path d="M9.0625 10.3125V6.5625" stroke="#FF41A3" stroke-width="1.5" stroke-linecap="round"/>
</svg>
