<svg width="137" height="38" viewBox="0 0 137 38" fill="none" xmlns="http://www.w3.org/2000/svg">
<rect width="137" height="38" rx="8" fill="white" fill-opacity="0.05"/>
<path d="M16.834 11.0846V11.5013C16.834 13.8583 16.834 15.0368 17.5662 15.7691C18.2985 16.5013 19.477 16.5013 21.834 16.5013H22.2507M22.6673 17.8821V20.668C22.6673 23.8106 22.6673 25.3821 21.691 26.3583C20.7147 27.3346 19.1433 27.3346 16.0007 27.3346C12.858 27.3346 11.2866 27.3346 10.3103 26.3583C9.33398 25.3821 9.33398 23.8106 9.33398 20.668V16.8812C9.33398 14.177 9.33398 12.8249 10.0724 11.9091C10.2216 11.7241 10.3901 11.5555 10.5751 11.4064C11.4909 10.668 12.843 10.668 15.5472 10.668C16.1352 10.668 16.4291 10.668 16.6983 10.763C16.7543 10.7827 16.8092 10.8055 16.8627 10.8311C17.1203 10.9543 17.3282 11.1621 17.7439 11.5779L21.691 15.525C22.1727 16.0067 22.4136 16.2476 22.5405 16.5539C22.6673 16.8601 22.6673 17.2008 22.6673 17.8821Z" stroke="#DBFD5C" stroke-width="1.5" stroke-linecap="round" stroke-linejoin="round"/>
<path d="M36.24 9.05V9.98H34.39V16H33.25V9.98H31.39V9.05H36.24ZM38.5345 11.29C38.7012 11.01 38.9212 10.7933 39.1945 10.64C39.4745 10.48 39.8045 10.4 40.1845 10.4V11.58H39.8945C39.4479 11.58 39.1079 11.6933 38.8745 11.92C38.6479 12.1467 38.5345 12.54 38.5345 13.1V16H37.3945V10.49H38.5345V11.29ZM40.8524 13.22C40.8524 12.6667 40.9658 12.1767 41.1924 11.75C41.4258 11.3233 41.7391 10.9933 42.1324 10.76C42.5324 10.52 42.9724 10.4 43.4524 10.4C43.8858 10.4 44.2624 10.4867 44.5824 10.66C44.9091 10.8267 45.1691 11.0367 45.3624 11.29V10.49H46.5124V16H45.3624V15.18C45.1691 15.44 44.9058 15.6567 44.5724 15.83C44.2391 16.0033 43.8591 16.09 43.4324 16.09C42.9591 16.09 42.5258 15.97 42.1324 15.73C41.7391 15.4833 41.4258 15.1433 41.1924 14.71C40.9658 14.27 40.8524 13.7733 40.8524 13.22ZM45.3624 13.24C45.3624 12.86 45.2824 12.53 45.1224 12.25C44.9691 11.97 44.7658 11.7567 44.5124 11.61C44.2591 11.4633 43.9858 11.39 43.6924 11.39C43.3991 11.39 43.1258 11.4633 42.8724 11.61C42.6191 11.75 42.4124 11.96 42.2524 12.24C42.0991 12.5133 42.0224 12.84 42.0224 13.22C42.0224 13.6 42.0991 13.9333 42.2524 14.22C42.4124 14.5067 42.6191 14.7267 42.8724 14.88C43.1324 15.0267 43.4058 15.1 43.6924 15.1C43.9858 15.1 44.2591 15.0267 44.5124 14.88C44.7658 14.7333 44.9691 14.52 45.1224 14.24C45.2824 13.9533 45.3624 13.62 45.3624 13.24ZM47.6298 13.22C47.6298 12.6667 47.7431 12.1767 47.9698 11.75C48.2031 11.3233 48.5164 10.9933 48.9098 10.76C49.3098 10.52 49.7531 10.4 50.2398 10.4C50.5998 10.4 50.9531 10.48 51.2998 10.64C51.6531 10.7933 51.9331 11 52.1398 11.26V8.6H53.2898V16H52.1398V15.17C51.9531 15.4367 51.6931 15.6567 51.3598 15.83C51.0331 16.0033 50.6564 16.09 50.2298 16.09C49.7498 16.09 49.3098 15.97 48.9098 15.73C48.5164 15.4833 48.2031 15.1433 47.9698 14.71C47.7431 14.27 47.6298 13.7733 47.6298 13.22ZM52.1398 13.24C52.1398 12.86 52.0598 12.53 51.8998 12.25C51.7464 11.97 51.5431 11.7567 51.2898 11.61C51.0364 11.4633 50.7631 11.39 50.4698 11.39C50.1764 11.39 49.9031 11.4633 49.6498 11.61C49.3964 11.75 49.1898 11.96 49.0298 12.24C48.8764 12.5133 48.7998 12.84 48.7998 13.22C48.7998 13.6 48.8764 13.9333 49.0298 14.22C49.1898 14.5067 49.3964 14.7267 49.6498 14.88C49.9098 15.0267 50.1831 15.1 50.4698 15.1C50.7631 15.1 51.0364 15.0267 51.2898 14.88C51.5431 14.7333 51.7464 14.52 51.8998 14.24C52.0598 13.9533 52.1398 13.62 52.1398 13.24ZM55.3671 9.76C55.1604 9.76 54.9871 9.69 54.8471 9.55C54.7071 9.41 54.6371 9.23667 54.6371 9.03C54.6371 8.82333 54.7071 8.65 54.8471 8.51C54.9871 8.37 55.1604 8.3 55.3671 8.3C55.5671 8.3 55.7371 8.37 55.8771 8.51C56.0171 8.65 56.0871 8.82333 56.0871 9.03C56.0871 9.23667 56.0171 9.41 55.8771 9.55C55.7371 9.69 55.5671 9.76 55.3671 9.76ZM55.9271 10.49V16H54.7871V10.49H55.9271ZM60.2038 10.4C60.6372 10.4 61.0238 10.49 61.3638 10.67C61.7105 10.85 61.9805 11.1167 62.1738 11.47C62.3672 11.8233 62.4638 12.25 62.4638 12.75V16H61.3338V12.92C61.3338 12.4267 61.2105 12.05 60.9638 11.79C60.7172 11.5233 60.3805 11.39 59.9538 11.39C59.5272 11.39 59.1872 11.5233 58.9338 11.79C58.6872 12.05 58.5638 12.4267 58.5638 12.92V16H57.4238V10.49H58.5638V11.12C58.7505 10.8933 58.9872 10.7167 59.2738 10.59C59.5672 10.4633 59.8772 10.4 60.2038 10.4ZM66.138 10.4C66.5646 10.4 66.9413 10.4867 67.268 10.66C67.6013 10.8267 67.8613 11.0367 68.048 11.29V10.49H69.198V16.09C69.198 16.5967 69.0913 17.0467 68.878 17.44C68.6646 17.84 68.3546 18.1533 67.948 18.38C67.548 18.6067 67.068 18.72 66.508 18.72C65.7613 18.72 65.1413 18.5433 64.648 18.19C64.1546 17.8433 63.8746 17.37 63.808 16.77H64.938C65.0246 17.0567 65.208 17.2867 65.488 17.46C65.7746 17.64 66.1146 17.73 66.508 17.73C66.968 17.73 67.338 17.59 67.618 17.31C67.9046 17.03 68.048 16.6233 68.048 16.09V15.17C67.8546 15.43 67.5913 15.65 67.258 15.83C66.9313 16.0033 66.558 16.09 66.138 16.09C65.658 16.09 65.218 15.97 64.818 15.73C64.4246 15.4833 64.1113 15.1433 63.878 14.71C63.6513 14.27 63.538 13.7733 63.538 13.22C63.538 12.6667 63.6513 12.1767 63.878 11.75C64.1113 11.3233 64.4246 10.9933 64.818 10.76C65.218 10.52 65.658 10.4 66.138 10.4ZM68.048 13.24C68.048 12.86 67.968 12.53 67.808 12.25C67.6546 11.97 67.4513 11.7567 67.198 11.61C66.9446 11.4633 66.6713 11.39 66.378 11.39C66.0846 11.39 65.8113 11.4633 65.558 11.61C65.3046 11.75 65.098 11.96 64.938 12.24C64.7846 12.5133 64.708 12.84 64.708 13.22C64.708 13.6 64.7846 13.9333 64.938 14.22C65.098 14.5067 65.3046 14.7267 65.558 14.88C65.818 15.0267 66.0913 15.1 66.378 15.1C66.6713 15.1 66.9446 15.0267 67.198 14.88C67.4513 14.7333 67.6546 14.52 67.808 14.24C67.968 13.9533 68.048 13.62 68.048 13.24ZM76.903 16L75.303 13.22H74.433V16H73.293V9.05H75.693C76.2263 9.05 76.6763 9.14333 77.043 9.33C77.4163 9.51667 77.693 9.76667 77.873 10.08C78.0596 10.3933 78.153 10.7433 78.153 11.13C78.153 11.5833 78.0196 11.9967 77.753 12.37C77.493 12.7367 77.0896 12.9867 76.543 13.12L78.263 16H76.903ZM74.433 12.31H75.693C76.1196 12.31 76.4396 12.2033 76.653 11.99C76.873 11.7767 76.983 11.49 76.983 11.13C76.983 10.77 76.8763 10.49 76.663 10.29C76.4496 10.0833 76.1263 9.98 75.693 9.98H74.433V12.31ZM84.6013 10.49V16H83.4613V15.35C83.2813 15.5767 83.0447 15.7567 82.7513 15.89C82.4647 16.0167 82.158 16.08 81.8313 16.08C81.398 16.08 81.008 15.99 80.6613 15.81C80.3213 15.63 80.0513 15.3633 79.8513 15.01C79.658 14.6567 79.5613 14.23 79.5613 13.73V10.49H80.6913V13.56C80.6913 14.0533 80.8147 14.4333 81.0613 14.7C81.308 14.96 81.6447 15.09 82.0713 15.09C82.498 15.09 82.8347 14.96 83.0813 14.7C83.3347 14.4333 83.4613 14.0533 83.4613 13.56V10.49H84.6013ZM87.2455 8.6V16H86.1055V8.6H87.2455ZM93.7922 13.11C93.7922 13.3167 93.7789 13.5033 93.7522 13.67H89.5422C89.5755 14.11 89.7389 14.4633 90.0322 14.73C90.3255 14.9967 90.6855 15.13 91.1122 15.13C91.7255 15.13 92.1589 14.8733 92.4122 14.36H93.6422C93.4755 14.8667 93.1722 15.2833 92.7322 15.61C92.2989 15.93 91.7589 16.09 91.1122 16.09C90.5855 16.09 90.1122 15.9733 89.6922 15.74C89.2789 15.5 88.9522 15.1667 88.7122 14.74C88.4789 14.3067 88.3622 13.8067 88.3622 13.24C88.3622 12.6733 88.4755 12.1767 88.7022 11.75C88.9355 11.3167 89.2589 10.9833 89.6722 10.75C90.0922 10.5167 90.5722 10.4 91.1122 10.4C91.6322 10.4 92.0955 10.5133 92.5022 10.74C92.9089 10.9667 93.2255 11.2867 93.4522 11.7C93.6789 12.1067 93.7922 12.5767 93.7922 13.11ZM92.6022 12.75C92.5955 12.33 92.4455 11.9933 92.1522 11.74C91.8589 11.4867 91.4955 11.36 91.0622 11.36C90.6689 11.36 90.3322 11.4867 90.0522 11.74C89.7722 11.9867 89.6055 12.3233 89.5522 12.75H92.6022ZM96.9141 16.09C96.4807 16.09 96.0907 16.0133 95.7441 15.86C95.4041 15.7 95.1341 15.4867 94.9341 15.22C94.7341 14.9467 94.6274 14.6433 94.6141 14.31H95.7941C95.8141 14.5433 95.9241 14.74 96.1241 14.9C96.3307 15.0533 96.5874 15.13 96.8941 15.13C97.2141 15.13 97.4607 15.07 97.6341 14.95C97.8141 14.8233 97.9041 14.6633 97.9041 14.47C97.9041 14.2633 97.8041 14.11 97.6041 14.01C97.4107 13.91 97.1007 13.8 96.6741 13.68C96.2607 13.5667 95.9241 13.4567 95.6641 13.35C95.4041 13.2433 95.1774 13.08 94.9841 12.86C94.7974 12.64 94.7041 12.35 94.7041 11.99C94.7041 11.6967 94.7907 11.43 94.9641 11.19C95.1374 10.9433 95.3841 10.75 95.7041 10.61C96.0307 10.47 96.4041 10.4 96.8241 10.4C97.4507 10.4 97.9541 10.56 98.3341 10.88C98.7207 11.1933 98.9274 11.6233 98.9541 12.17H97.8141C97.7941 11.9233 97.6941 11.7267 97.5141 11.58C97.3341 11.4333 97.0907 11.36 96.7841 11.36C96.4841 11.36 96.2541 11.4167 96.0941 11.53C95.9341 11.6433 95.8541 11.7933 95.8541 11.98C95.8541 12.1267 95.9074 12.25 96.0141 12.35C96.1207 12.45 96.2507 12.53 96.4041 12.59C96.5574 12.6433 96.7841 12.7133 97.0841 12.8C97.4841 12.9067 97.8107 13.0167 98.0641 13.13C98.3241 13.2367 98.5474 13.3967 98.7341 13.61C98.9207 13.8233 99.0174 14.1067 99.0241 14.46C99.0241 14.7733 98.9374 15.0533 98.7641 15.3C98.5907 15.5467 98.3441 15.74 98.0241 15.88C97.7107 16.02 97.3407 16.09 96.9141 16.09ZM100.716 16.07C100.509 16.07 100.336 16 100.196 15.86C100.056 15.72 99.9859 15.5467 99.9859 15.34C99.9859 15.1333 100.056 14.96 100.196 14.82C100.336 14.68 100.509 14.61 100.716 14.61C100.916 14.61 101.086 14.68 101.226 14.82C101.366 14.96 101.436 15.1333 101.436 15.34C101.436 15.5467 101.366 15.72 101.226 15.86C101.086 16 100.916 16.07 100.716 16.07ZM103.128 16.07C102.921 16.07 102.748 16 102.608 15.86C102.468 15.72 102.398 15.5467 102.398 15.34C102.398 15.1333 102.468 14.96 102.608 14.82C102.748 14.68 102.921 14.61 103.128 14.61C103.328 14.61 103.498 14.68 103.638 14.82C103.778 14.96 103.848 15.1333 103.848 15.34C103.848 15.5467 103.778 15.72 103.638 15.86C103.498 16 103.328 16.07 103.128 16.07ZM105.54 16.07C105.333 16.07 105.16 16 105.02 15.86C104.88 15.72 104.81 15.5467 104.81 15.34C104.81 15.1333 104.88 14.96 105.02 14.82C105.16 14.68 105.333 14.61 105.54 14.61C105.74 14.61 105.91 14.68 106.05 14.82C106.19 14.96 106.26 15.1333 106.26 15.34C106.26 15.5467 106.19 15.72 106.05 15.86C105.91 16 105.74 16.07 105.54 16.07Z" fill="white"/>
<path d="M36.61 25.12C36.61 25.4733 36.5267 25.8067 36.36 26.12C36.1933 26.4333 35.9267 26.69 35.56 26.89C35.1933 27.0833 34.7233 27.18 34.15 27.18H32.89V30H31.75V23.05H34.15C34.6833 23.05 35.1333 23.1433 35.5 23.33C35.8733 23.51 36.15 23.7567 36.33 24.07C36.5167 24.3833 36.61 24.7333 36.61 25.12ZM34.15 26.25C34.5833 26.25 34.9067 26.1533 35.12 25.96C35.3333 25.76 35.44 25.48 35.44 25.12C35.44 24.36 35.01 23.98 34.15 23.98H32.89V26.25H34.15ZM39.9673 23.05C40.7073 23.05 41.3539 23.1933 41.9073 23.48C42.4673 23.76 42.8973 24.1667 43.1973 24.7C43.5039 25.2267 43.6573 25.8433 43.6573 26.55C43.6573 27.2567 43.5039 27.87 43.1973 28.39C42.8973 28.91 42.4673 29.31 41.9073 29.59C41.3539 29.8633 40.7073 30 39.9673 30H37.6973V23.05H39.9673ZM39.9673 29.07C40.7806 29.07 41.4039 28.85 41.8373 28.41C42.2706 27.97 42.4873 27.35 42.4873 26.55C42.4873 25.7433 42.2706 25.1133 41.8373 24.66C41.4039 24.2067 40.7806 23.98 39.9673 23.98H38.8373V29.07H39.9673ZM48.8771 23.05V23.98H45.9271V26.03H48.2271V26.96H45.9271V30H44.7871V23.05H48.8771Z" fill="white" fill-opacity="0.5"/>
<rect x="119" y="6" width="12" height="12" rx="6" fill="#15171B"/>
<path d="M122.665 9.30279C122.58 9.30279 122.491 9.33146 122.426 9.39646C122.363 9.46054 122.328 9.54655 122.328 9.63612C122.328 9.7257 122.363 9.81171 122.426 9.87579L124.519 11.9695L122.426 14.0631C122.363 14.1272 122.328 14.2132 122.328 14.3028C122.328 14.3924 122.363 14.4784 122.426 14.5425C122.556 14.6725 122.775 14.6725 122.905 14.5425L124.998 12.4491L127.092 14.5425C127.222 14.6725 127.441 14.6725 127.571 14.5425C127.701 14.4125 127.701 14.1935 127.571 14.0631L125.478 11.9698L127.571 9.87579C127.701 9.74579 127.701 9.52679 127.571 9.39646C127.507 9.33495 127.421 9.3014 127.332 9.30312C127.246 9.30312 127.157 9.33146 127.092 9.39646L124.998 11.4901L122.905 9.39679C122.841 9.33496 122.754 9.30116 122.665 9.30279Z" fill="white" fill-opacity="0.8"/>
</svg>
