<svg width="13" height="13" viewBox="0 0 13 13" fill="none" xmlns="http://www.w3.org/2000/svg">
<path d="M6.50846 1.08301C3.51684 1.08301 1.0918 3.50805 1.0918 6.49967C1.0918 9.4913 3.51684 11.9163 6.50846 11.9163C9.50009 11.9163 11.9251 9.4913 11.9251 6.49967C11.9251 3.50805 9.50009 1.08301 6.50846 1.08301ZM6.50846 3.79134C6.65212 3.79134 6.7899 3.84841 6.89148 3.94999C6.99306 4.05157 7.05013 4.18935 7.05013 4.33301V7.04134C7.05013 7.185 6.99306 7.32277 6.89148 7.42436C6.7899 7.52594 6.65212 7.58301 6.50846 7.58301C6.3648 7.58301 6.22703 7.52594 6.12545 7.42436C6.02386 7.32277 5.9668 7.185 5.9668 7.04134V4.33301C5.9668 4.18935 6.02386 4.05157 6.12545 3.94999C6.22703 3.84841 6.3648 3.79134 6.50846 3.79134ZM6.50846 8.12467C6.65212 8.12467 6.7899 8.18174 6.89148 8.28332C6.99306 8.38491 7.05013 8.52268 7.05013 8.66634C7.05013 8.81 6.99306 8.94777 6.89148 9.04936C6.7899 9.15094 6.65212 9.20801 6.50846 9.20801C6.3648 9.20801 6.22703 9.15094 6.12545 9.04936C6.02386 8.94777 5.9668 8.81 5.9668 8.66634C5.9668 8.52268 6.02386 8.38491 6.12545 8.28332C6.22703 8.18174 6.3648 8.12467 6.50846 8.12467Z" fill="#B9B9B9" fill-opacity="0.5"/>
</svg>
